<svg width="45" height="43" viewBox="0 0 45 43" fill="none" xmlns="http://www.w3.org/2000/svg">
<path d="M43.6754 3.42903C43.6754 2.9428 43.4823 2.47649 43.1385 2.13267C42.7947 1.78886 42.3283 1.5957 41.8421 1.5957H8.84212C8.35589 1.5957 7.88958 1.78886 7.54576 2.13267C7.20194 2.47649 7.00879 2.9428 7.00879 3.42903V24.4757H18.0088C18.495 24.4757 18.9613 24.6688 19.3051 25.0126C19.649 25.3565 19.8421 25.8228 19.8421 26.309V36.7957H41.8421C42.3283 36.7957 42.7947 36.6025 43.1385 36.2587C43.4823 35.9149 43.6754 35.4486 43.6754 34.9623V3.42903Z" fill="#9FEAFF"/>
<path d="M23.5088 36.7958H41.8421C42.3185 36.8051 42.7791 36.625 43.1229 36.2951C43.4666 35.9651 43.6653 35.5122 43.6754 35.0358V3.3558C43.6653 2.87943 43.4666 2.42653 43.1229 2.09654C42.7791 1.76656 42.3185 1.58647 41.8421 1.5958H8.84212C8.36573 1.58647 7.9051 1.76656 7.56137 2.09654C7.21763 2.42653 7.0189 2.87943 7.00879 3.3558V20.9558" stroke="#00303E" stroke-width="1.83333" stroke-linecap="round" stroke-linejoin="round"/>
<path d="M38.1754 6.87549L23.5088 20.9558" stroke="#00303E" stroke-width="1.83333" stroke-linecap="round" stroke-linejoin="round"/>
<path d="M32.6754 20.9558H23.5088V12.1558" stroke="#00303E" stroke-width="1.83333" stroke-linecap="round" stroke-linejoin="round"/>
<path d="M3.34213 24.4757C2.86573 24.4664 2.4051 24.6465 2.06137 24.9765C1.71764 25.3065 1.5189 25.7594 1.50879 26.2358" stroke="#00303E" stroke-width="1.83333" stroke-linecap="round" stroke-linejoin="round"/>
<path d="M1.50879 29.7559V31.5156" stroke="#00303E" stroke-width="1.83333" stroke-linecap="round" stroke-linejoin="round"/>
<path d="M14.3421 24.4758H12.5088" stroke="#00303E" stroke-width="1.83333" stroke-linecap="round" stroke-linejoin="round"/>
<path d="M8.84212 24.4758H7.00879" stroke="#00303E" stroke-width="1.83333" stroke-linecap="round" stroke-linejoin="round"/>
<path d="M8.84212 42.0757H7.00879" stroke="#00303E" stroke-width="1.83333" stroke-linecap="round" stroke-linejoin="round"/>
<path d="M14.3421 42.0757H12.5088" stroke="#00303E" stroke-width="1.83333" stroke-linecap="round" stroke-linejoin="round"/>
<path d="M3.34213 42.0758C2.86573 42.0852 2.4051 41.9051 2.06137 41.575C1.71764 41.245 1.5189 40.7921 1.50879 40.3157" stroke="#00303E" stroke-width="1.83333" stroke-linecap="round" stroke-linejoin="round"/>
<path d="M1.50879 36.7957V35.0356" stroke="#00303E" stroke-width="1.83333" stroke-linecap="round" stroke-linejoin="round"/>
<path d="M18.0088 24.4757C18.4852 24.4664 18.9458 24.6465 19.2896 24.9765C19.6333 25.3065 19.832 25.7594 19.8421 26.2358" stroke="#00303E" stroke-width="1.83333" stroke-linecap="round" stroke-linejoin="round"/>
<path d="M19.8422 29.7559V31.5156" stroke="#00303E" stroke-width="1.83333" stroke-linecap="round" stroke-linejoin="round"/>
<path d="M19.8422 35.0356V36.7957" stroke="#00303E" stroke-width="1.83333" stroke-linecap="round" stroke-linejoin="round"/>
<path d="M18.0088 42.0758C18.4852 42.0852 18.9458 41.9051 19.2896 41.575C19.6333 41.245 19.832 40.7921 19.8421 40.3157" stroke="#00303E" stroke-width="1.83333" stroke-linecap="round" stroke-linejoin="round"/>
</svg>
