<svg width="45" height="45" viewBox="0 0 45 45" fill="none" xmlns="http://www.w3.org/2000/svg">
<path d="M7.63945 36.5259H4.88945C3.91788 36.523 2.98693 36.1357 2.29993 35.4487C1.61292 34.7617 1.22568 33.8308 1.22278 32.8592V10.8594H43.3895V32.8592C43.3895 33.8317 43.0032 34.7643 42.3155 35.4519C41.6279 36.1396 40.6953 36.5259 39.7228 36.5259H7.63945Z" fill="#9FEAFF"/>
<path d="M1.22278 10.8594V32.8592C1.2247 33.8072 1.59555 34.7172 2.25678 35.3965L26.7941 10.8594H1.22278Z" fill="#DFF9FF"/>
<path d="M7.63945 36.5259H4.88945C3.91788 36.523 2.98693 36.1357 2.29993 35.4487C1.61292 34.7617 1.22568 33.8308 1.22278 32.8592V10.8594H43.3895V32.8592C43.3895 33.8317 43.0032 34.7643 42.3155 35.4519C41.6279 36.1396 40.6953 36.5259 39.7228 36.5259H36.9141" stroke="#00303E" stroke-width="1.83333" stroke-linecap="round" stroke-linejoin="round"/>
<path d="M43.3894 5.35934V10.8594H1.22278V5.35934C1.22278 4.38687 1.60909 3.45424 2.29672 2.7666C2.98435 2.07896 3.91698 1.69265 4.88944 1.69265H39.7228C40.2048 1.69095 40.6823 1.78464 41.128 1.96831C41.5736 2.15197 41.9785 2.422 42.3193 2.76282C42.6601 3.10364 42.9301 3.50853 43.1138 3.95415C43.2975 4.39978 43.3911 4.87735 43.3894 5.35934Z" fill="white" stroke="#00303E" stroke-width="1.83333" stroke-linecap="round" stroke-linejoin="round"/>
<path d="M7.63943 5.81567C7.73009 5.81567 7.8187 5.84256 7.89408 5.89292C7.96945 5.94329 8.0282 6.01488 8.06289 6.09864C8.09758 6.18239 8.10666 6.27456 8.08897 6.36347C8.07129 6.45239 8.02763 6.53406 7.96353 6.59817C7.89943 6.66227 7.81776 6.70593 7.72885 6.72361C7.63994 6.7413 7.54779 6.73222 7.46403 6.69753C7.38028 6.66284 7.3087 6.60409 7.25834 6.52871C7.20797 6.45333 7.18109 6.36471 7.18109 6.27405C7.18109 6.15248 7.22938 6.03589 7.31534 5.94993C7.40129 5.86397 7.51787 5.81567 7.63943 5.81567" stroke="#00303E" stroke-width="1.83333" stroke-linecap="round" stroke-linejoin="round"/>
<path d="M13.1394 5.81567C13.2301 5.81567 13.3187 5.84256 13.3941 5.89292C13.4695 5.94329 13.5282 6.01488 13.5629 6.09864C13.5976 6.18239 13.6067 6.27456 13.589 6.36347C13.5713 6.45239 13.5276 6.53406 13.4635 6.59817C13.3994 6.66227 13.3178 6.70593 13.2289 6.72361C13.1399 6.7413 13.0478 6.73222 12.964 6.69753C12.8803 6.66284 12.8087 6.60409 12.7583 6.52871C12.708 6.45333 12.6811 6.36471 12.6811 6.27405C12.6811 6.15248 12.7294 6.03589 12.8153 5.94993C12.9013 5.86397 13.0179 5.81567 13.1394 5.81567Z" stroke="#00303E" stroke-width="1.83333" stroke-linecap="round" stroke-linejoin="round"/>
<path d="M18.6394 5.81567C18.7301 5.81567 18.8187 5.84256 18.8941 5.89292C18.9695 5.94329 19.0282 6.01488 19.0629 6.09864C19.0976 6.18239 19.1067 6.27456 19.089 6.36347C19.0713 6.45239 19.0276 6.53406 18.9635 6.59817C18.8994 6.66227 18.8178 6.70593 18.7289 6.72361C18.6399 6.7413 18.5478 6.73222 18.464 6.69753C18.3803 6.66284 18.3087 6.60409 18.2583 6.52871C18.208 6.45333 18.1811 6.36471 18.1811 6.27405C18.1811 6.15248 18.2294 6.03589 18.3153 5.94993C18.4013 5.86397 18.5179 5.81567 18.6394 5.81567Z" stroke="#00303E" stroke-width="1.83333" stroke-linecap="round" stroke-linejoin="round"/>
<path d="M22.3061 43.8594C24.4817 43.8594 26.6084 43.2142 28.4174 42.0055C30.2263 40.7968 31.6362 39.0788 32.4688 37.0688C33.3013 35.0588 33.5192 32.8471 33.0947 30.7132C32.6703 28.5794 31.6226 26.6194 30.0843 25.081C28.5459 23.5426 26.5859 22.4949 24.4521 22.0705C22.3183 21.6461 20.1066 21.8639 18.0966 22.6965C16.0866 23.529 14.3686 24.939 13.1599 26.7479C11.9512 28.5569 11.3061 30.6836 11.3061 32.8593C11.3061 35.7767 12.465 38.5746 14.5279 40.6375C16.5908 42.7004 19.3887 43.8594 22.3061 43.8594Z" fill="#DFF9FF"/>
<path d="M22.3061 21.8594V16.3594" stroke="#00303E" stroke-width="1.83333" stroke-linecap="round" stroke-linejoin="round"/>
<path d="M19.5561 16.3594H25.0561" stroke="#00303E" stroke-width="1.83333" stroke-linecap="round" stroke-linejoin="round"/>
<path d="M13.1395 21.8594L15.499 24.2187" stroke="#00303E" stroke-width="1.83333" stroke-linecap="round" stroke-linejoin="round"/>
<path d="M31.4728 21.8594L29.1133 24.2187" stroke="#00303E" stroke-width="1.83333" stroke-linecap="round" stroke-linejoin="round"/>
<path d="M22.6324 32.5327L26.1983 28.969" stroke="#00303E" stroke-width="1.83333" stroke-linecap="round" stroke-linejoin="round"/>
<path d="M21.9853 32.533C22.0494 32.469 22.1311 32.4255 22.22 32.4079C22.3088 32.3903 22.4009 32.3994 22.4846 32.4342C22.5683 32.4689 22.6398 32.5276 22.6901 32.6029C22.7404 32.6783 22.7673 32.7668 22.7673 32.8574C22.7673 32.948 22.7404 33.0366 22.6901 33.1119C22.6398 33.1872 22.5683 33.246 22.4846 33.2807C22.4009 33.3154 22.3088 33.3245 22.22 33.307C22.1311 33.2894 22.0494 33.2458 21.9853 33.1819C21.8999 33.0954 21.8521 32.9789 21.8521 32.8574C21.8521 32.736 21.8999 32.6194 21.9853 32.533" stroke="#00303E" stroke-width="1.83333" stroke-linecap="round" stroke-linejoin="round"/>
<path d="M22.3061 38.783C19.8318 38.7809 17.4304 37.9447 15.49 36.4095C13.5496 34.8742 12.1834 32.7295 11.6123 30.322C11.2225 31.9395 11.2046 33.6243 11.5601 35.2497C11.9156 36.875 12.6352 38.3986 13.6646 39.7056C14.6941 41.0127 16.0066 42.0692 17.5034 42.7956C19.0002 43.522 20.6423 43.8994 22.3061 43.8994C23.9698 43.8994 25.6119 43.522 27.1087 42.7956C28.6055 42.0692 29.9181 41.0127 30.9475 39.7056C31.977 38.3986 32.6966 36.875 33.052 35.2497C33.4075 33.6243 33.3897 31.9395 32.9999 30.322C32.4288 32.7295 31.0626 34.8742 29.1222 36.4095C27.1818 37.9447 24.7804 38.7809 22.3061 38.783Z" fill="#9FEAFF"/>
<path d="M22.3061 43.8594C24.4817 43.8594 26.6084 43.2142 28.4174 42.0055C30.2263 40.7968 31.6362 39.0788 32.4688 37.0688C33.3013 35.0588 33.5192 32.8471 33.0947 30.7132C32.6703 28.5794 31.6226 26.6194 30.0843 25.081C28.5459 23.5426 26.5859 22.4949 24.4521 22.0705C22.3183 21.6461 20.1066 21.8639 18.0966 22.6965C16.0866 23.529 14.3686 24.939 13.1599 26.7479C11.9512 28.5569 11.3061 30.6836 11.3061 32.8593C11.3061 35.7767 12.465 38.5746 14.5279 40.6375C16.5908 42.7004 19.3887 43.8594 22.3061 43.8594Z" stroke="#00303E" stroke-width="1.83333" stroke-linecap="round" stroke-linejoin="round"/>
</svg>
