<svg width="119" height="223" viewBox="0 0 119 223" fill="none" xmlns="http://www.w3.org/2000/svg">
<path d="M117.189 180.933C115.348 187.924 111.674 194.347 106.399 199.621C98.5682 207.453 88.1937 211.77 77.1935 211.77H41.3545C30.3543 211.77 19.9799 207.457 12.1488 199.621C6.8744 194.347 3.20021 187.924 1.35864 180.933C1.41228 191.495 5.57815 201.45 13.1053 208.981C20.6817 216.558 30.7164 220.732 41.3545 220.732H77.1935C87.8317 220.732 97.8664 216.558 105.443 208.981C112.974 201.45 117.14 191.5 117.189 180.933Z" fill="#47AED7"/>
<path d="M106.399 189.301C98.5682 197.132 88.1937 201.45 77.1935 201.45H41.3545C30.3543 201.45 19.9799 197.136 12.1488 189.301C6.8744 184.026 3.20021 177.603 1.35864 170.613C1.41228 181.175 5.57815 191.129 13.1053 198.661C20.6817 206.237 30.7164 210.412 41.3545 210.412H77.1935C87.8317 210.412 97.8664 206.237 105.443 198.661C112.974 191.129 117.14 181.179 117.189 170.613C115.348 177.603 111.674 184.026 106.399 189.301Z" fill="#08A54C"/>
<path d="M106.399 178.98C98.5682 186.811 88.1937 191.129 77.1935 191.129H41.3545C30.3543 191.129 19.9799 186.816 12.1488 178.98C6.8744 173.706 3.20021 167.283 1.35864 160.292C1.41228 170.854 5.57815 180.808 13.1053 188.34C20.6817 195.916 30.7164 200.091 41.3545 200.091H77.1935C87.8317 200.091 97.8664 195.916 105.443 188.34C112.974 180.808 117.14 170.858 117.189 160.292C115.348 167.283 111.674 173.706 106.399 178.98Z" fill="#EE4116"/>
<path d="M106.399 168.664C98.5682 176.495 88.1937 180.813 77.1935 180.813H41.3545C30.3543 180.813 19.9799 176.499 12.1488 168.664C6.8744 163.389 3.20021 156.966 1.35864 149.975C1.41228 160.538 5.57815 170.492 13.1053 178.023C20.6817 185.6 30.7164 189.775 41.3545 189.775H77.1935C87.8317 189.775 97.8664 185.6 105.443 178.023C112.974 170.492 117.14 160.542 117.189 149.975C115.348 156.966 111.674 163.389 106.399 168.664Z" fill="#E2BA36"/>
<path d="M77.1936 2.18555H41.3546C30.7165 2.18555 20.6817 6.36035 13.1054 13.9367C5.52906 21.513 1.35425 31.5478 1.35425 42.1859V139.454C1.35425 150.092 5.52906 160.126 13.1054 167.703C20.6817 175.279 30.7165 179.454 41.3546 179.454H77.1936C87.8317 179.454 97.8665 175.279 105.443 167.703C113.019 160.126 117.194 150.092 117.194 139.454V42.1859C117.194 31.5478 113.019 21.513 105.443 13.9367C97.8665 6.36035 87.8317 2.18555 77.1936 2.18555ZM49.6238 54.536C49.6238 60.4585 47.4648 65.2636 44.7964 65.2636C42.1279 65.2636 39.969 60.4585 39.969 54.536C39.969 48.6135 42.1324 43.8085 44.7964 43.8085C47.4604 43.8085 49.6238 48.6135 49.6238 54.536ZM73.7518 43.8085C76.4158 43.8085 78.5792 48.6135 78.5792 54.536C78.5792 60.4585 76.4203 65.2636 73.7518 65.2636C71.0833 65.2636 68.9244 60.4585 68.9244 54.536C68.9244 48.6135 71.0833 43.8085 73.7518 43.8085ZM59.2875 115.871C49.0516 115.871 39.4415 111.629 32.2183 103.932C25.004 96.2438 21.0304 86.0214 21.0304 75.1553L21.7098 75.1419H22.3892C22.3892 85.6772 26.2332 95.5689 33.2106 103.007C40.1791 110.431 49.436 114.516 59.283 114.521C79.6386 114.516 96.1813 96.8517 96.1769 75.1463H97.5312C97.5357 97.5982 80.385 115.871 59.292 115.88L59.2875 115.871Z" fill="white"/>
<path d="M106.399 12.98C98.5681 5.14889 88.1936 0.831055 77.1934 0.831055H41.3545C30.3543 0.831055 19.9798 5.14442 12.1487 12.98C4.3176 20.8111 -0.000244141 31.1856 -0.000244141 42.1858V180.732C-0.000244141 191.732 4.31313 202.107 12.1487 209.938C19.9798 217.769 30.3543 222.087 41.3545 222.087H77.1934C88.1936 222.087 98.5681 217.773 106.399 209.938C114.23 202.107 118.548 191.732 118.548 180.732V42.1858C118.548 31.1856 114.235 20.8111 106.399 12.98ZM117.189 42.1858V139.453C117.189 150.092 113.015 160.126 105.438 167.703C97.8619 175.279 87.8271 179.454 77.189 179.454H41.35C30.7118 179.454 20.6771 175.279 13.1008 167.703C5.52444 160.126 1.34964 150.092 1.34964 139.453V42.1858C1.34964 31.5476 5.52444 21.5129 13.1008 13.9365C20.6771 6.36021 30.7118 2.18541 41.35 2.18541H77.189C87.8271 2.18541 97.8619 6.36021 105.438 13.9365C113.015 21.5129 117.189 31.5476 117.189 42.1858ZM41.3545 220.732C30.7163 220.732 20.6816 216.558 13.1053 208.981C5.57362 201.45 1.40775 191.5 1.35858 180.933C3.20014 187.924 6.87433 194.347 12.1487 199.622C19.9798 207.453 30.3543 211.771 41.3545 211.771H77.1934C88.1936 211.771 98.5681 207.457 106.399 199.622C111.674 194.347 115.348 187.924 117.189 180.933C117.136 191.495 112.97 201.45 105.443 208.981C97.8663 216.558 87.8316 220.732 77.1934 220.732H41.3545ZM105.443 198.665C97.8663 206.241 87.8316 210.416 77.1934 210.416H41.3545C30.7163 210.416 20.6816 206.241 13.1053 198.665C5.57362 191.133 1.40775 181.184 1.35858 170.617C3.20014 177.608 6.87433 184.031 12.1487 189.305C19.9798 197.136 30.3543 201.454 41.3545 201.454H77.1934C88.1936 201.454 98.5681 197.141 106.399 189.305C111.674 184.031 115.348 177.608 117.189 170.617C117.136 181.179 112.97 191.133 105.443 198.665ZM105.443 188.344C97.8663 195.921 87.8316 200.095 77.1934 200.095H41.3545C30.7163 200.095 20.6816 195.921 13.1053 188.344C5.57362 180.813 1.40775 170.863 1.35858 160.296C3.20014 167.287 6.87433 173.71 12.1487 178.984C19.9798 186.816 30.3543 191.133 41.3545 191.133H77.1934C88.1936 191.133 98.5681 186.82 106.399 178.984C111.674 173.71 115.348 167.287 117.189 160.296C117.136 170.858 112.97 180.813 105.443 188.344ZM105.443 178.023C97.8663 185.6 87.8316 189.775 77.1934 189.775H41.3545C30.7163 189.775 20.6816 185.6 13.1053 178.023C5.57362 170.492 1.40775 160.542 1.35858 149.975C3.20014 156.966 6.87433 163.389 12.1487 168.664C19.9798 176.495 30.3543 180.813 41.3545 180.813H77.1934C88.1936 180.813 98.5681 176.499 106.399 168.664C111.674 163.389 115.348 156.966 117.189 149.975C117.136 160.538 112.97 170.492 105.443 178.023Z" fill="black"/>
<path d="M59.2739 114.516C49.4269 114.516 40.1699 110.426 33.2015 103.002C26.2241 95.5643 22.3801 85.6771 22.3801 75.1373H21.7007L21.0212 75.1507C21.0212 86.0213 24.9949 96.2393 32.2092 103.927C39.4369 111.629 49.0425 115.866 59.2784 115.866C80.367 115.862 97.5221 97.5892 97.5176 75.1328H96.1633C96.1678 96.8382 79.625 114.503 59.2694 114.512L59.2739 114.516Z" fill="black"/>
<path d="M39.9688 54.5359C39.9688 60.4584 42.1321 65.2635 44.7962 65.2635C47.4602 65.2635 49.6236 60.4584 49.6236 54.5359C49.6236 48.6134 47.4646 43.8083 44.7962 43.8083C42.1277 43.8083 39.9688 48.6134 39.9688 54.5359Z" fill="black"/>
<path d="M73.7517 65.2635C76.4157 65.2635 78.5791 60.4584 78.5791 54.5359C78.5791 48.6134 76.4202 43.8083 73.7517 43.8083C71.0832 43.8083 68.9243 48.6134 68.9243 54.5359C68.9243 60.4584 71.0832 65.2635 73.7517 65.2635Z" fill="black"/>
</svg>
