<svg width="336" height="79" viewBox="0 0 336 79" fill="none" xmlns="http://www.w3.org/2000/svg">
<path d="M1.74731 62.2722V34.3659C1.74731 27.7894 7.39353 25.0834 11.0789 23.3275C23.8214 17.2565 27.7148 4.19078 37.4649 3.81727C27.7148 20.8216 44.0851 16.6725 48.0098 15.8517C52.0737 15.0018 37.6579 19.0883 58.3157 30.2276V61.2403C58.3157 61.6 58.1225 61.9319 57.8099 62.1097L30.4124 77.684C30.1138 77.8538 29.7491 77.8584 29.4463 77.6964L2.27543 63.1539C1.95028 62.9799 1.74731 62.641 1.74731 62.2722Z" fill="#F5C32C"/>
<path d="M43.5143 2.36715C44.8558 -0.574285 46.6678 11.8586 40.2322 10.7381C37.4649 10.2563 42.1628 7.1788 43.5143 2.36715Z" fill="#F5C32C"/>
<path d="M1.74731 62.2722V34.3659C1.74731 27.7894 7.39353 25.0834 11.0789 23.3275C23.8214 17.2565 27.7148 4.19078 37.4649 3.81727C27.7148 20.8216 44.0851 16.6725 48.0098 15.8517C52.0737 15.0018 37.6579 19.0883 58.3157 30.2276V61.2403C58.3157 61.6 58.1225 61.9319 57.8099 62.1097L30.4124 77.684C30.1138 77.8538 29.7491 77.8584 29.4463 77.6964L2.27543 63.1539C1.95028 62.9799 1.74731 62.641 1.74731 62.2722Z" stroke="#DCB32B" stroke-width="1.6" stroke-miterlimit="1.17176" stroke-linejoin="round"/>
<path d="M43.5143 2.36715C44.8558 -0.574285 46.6678 11.8586 40.2322 10.7381C37.4649 10.2563 42.1628 7.1788 43.5143 2.36715Z" stroke="#DCB32B" stroke-width="2" stroke-miterlimit="1.17176" stroke-linejoin="round"/>
<path d="M30.0625 71.0983L53.318 58.199V32.4259L30.0625 45.3082V71.0983Z" fill="#19874F" stroke="black" stroke-linejoin="round"/>
<path d="M30.0627 71.0983V45.2997L6.79834 32.4259V58.199L30.0627 71.0983Z" fill="#EA381F" stroke="black" stroke-linejoin="round"/>
<path d="M6.79834 32.4259L30.0627 45.3082L53.3182 32.4259L30.0627 19.5521L6.79834 32.4259Z" fill="#3AAEDA" stroke="black" stroke-linejoin="round"/>
<g style="mix-blend-mode:soft-light">
<path d="M27.6642 22.6429L10.7712 31.9926C10.8137 32.2742 10.8137 32.5602 10.7712 32.8418L27.6377 42.183C28.3306 41.6913 29.1696 41.426 30.0314 41.426C30.8931 41.426 31.7321 41.6913 32.4251 42.183L49.2915 32.8418C49.2575 32.5597 49.2575 32.2747 49.2915 31.9926L32.4516 22.6429C31.7587 23.1346 30.9197 23.3999 30.0579 23.3999C29.1962 23.3999 28.3572 23.1346 27.6642 22.6429Z" fill="white" fill-opacity="0.45"/>
</g>
<g style="mix-blend-mode:soft-light">
<path d="M50.9287 35.432L34.0446 44.875C34.1399 45.6953 33.9583 46.5233 33.5266 47.2372C33.0949 47.9511 32.4359 48.5132 31.6465 48.8408V67.4296C31.9268 67.5454 32.1913 67.6937 32.4341 67.8712L49.3005 58.5301C49.2017 57.7104 49.3807 56.882 49.8111 56.1677C50.2414 55.4534 50.9002 54.8911 51.6898 54.5643V35.8821C51.4173 35.7635 51.1616 35.6123 50.9287 35.432V35.432Z" fill="white" fill-opacity="0.45"/>
</g>
<g style="mix-blend-mode:soft-light">
<path d="M9.19626 36.3571C8.94517 36.5176 8.68196 36.661 8.40869 36.7862V54.9404C9.19153 55.2641 9.84299 55.8126 10.268 56.5058C10.6931 57.199 10.8694 58.0008 10.7714 58.7941L27.6378 67.8712C27.8886 67.7101 28.1518 67.5667 28.4254 67.4421V49.2878C27.6377 48.9674 26.9803 48.4207 26.549 47.7276C26.1176 47.0344 25.9349 46.231 26.0273 45.4342L9.19626 36.3571Z" fill="white" fill-opacity="0.65"/>
</g>
<path d="M83.5042 50.6886C81.6002 50.6886 80.2002 50.6046 79.3042 50.4366C78.4082 50.2686 77.9602 50.0726 77.9602 49.8486L79.6402 46.1946C80.2842 46.3066 81.8802 46.4186 84.4282 46.5306C87.0042 46.6146 90.5322 46.6566 95.0122 46.6566H95.8102C97.0142 46.6566 97.8682 46.4466 98.3722 46.0266C98.8762 45.5786 99.1282 44.8366 99.1282 43.8006V42.9606C99.1282 41.9806 98.9182 41.2806 98.4982 40.8606C98.1062 40.4406 97.2102 40.2306 95.8102 40.2306H86.0662C83.2382 40.2306 81.1802 39.7126 79.8922 38.6766C78.6042 37.6126 77.9602 35.8906 77.9602 33.5106V32.8386C77.9602 31.6066 78.1842 30.4726 78.6322 29.4366C79.1082 28.4006 79.9062 27.5746 81.0262 26.9586C82.1462 26.3146 83.6862 25.9926 85.6462 25.9926H97.0702C98.9742 25.9926 100.514 26.0906 101.69 26.2866C102.866 26.4826 103.454 26.6926 103.454 26.9166L102.614 30.4446C101.886 30.3606 100.234 30.2766 97.6582 30.1926C95.0822 30.0806 91.6242 30.0246 87.2842 30.0246L86.8222 29.9826C85.5342 29.9826 84.6662 30.2486 84.2182 30.7806C83.7702 31.2846 83.5322 31.9286 83.5042 32.7126V33.4266C83.5042 34.3506 83.7562 35.0506 84.2602 35.5266C84.7922 35.9746 85.6602 36.1986 86.8642 36.1986H96.1882C97.9802 36.1986 99.5062 36.3806 100.766 36.7446C102.026 37.1086 102.992 37.7806 103.664 38.7606C104.336 39.7126 104.672 41.1266 104.672 43.0026V43.6746C104.672 45.7746 104.126 47.4686 103.034 48.7566C101.97 50.0446 100.108 50.6886 97.4482 50.6886H83.5042ZM116.762 51.1086C114.214 51.1086 112.436 50.4226 111.428 49.0506C110.42 47.6786 109.916 45.8586 109.916 43.5906V25.9926H115.46V43.7586C115.46 45.0746 115.782 45.9566 116.426 46.4046C117.07 46.8526 117.868 47.0766 118.82 47.0766H127.724C128.62 47.0766 129.404 46.8526 130.076 46.4046C130.748 45.9286 131.084 45.0466 131.084 43.7586V25.9926H136.628V43.5906C136.628 45.1026 136.418 46.4186 135.998 47.5386C135.578 48.6586 134.878 49.5406 133.898 50.1846C132.918 50.8006 131.56 51.1086 129.824 51.1086H116.762ZM143.123 50.6886V29.3526L142.703 25.9506H161.309C163.101 25.9506 164.501 26.1886 165.509 26.6646C166.545 27.1406 167.301 27.7706 167.777 28.5546C168.281 29.3106 168.603 30.1226 168.743 30.9906C168.883 31.8586 168.953 32.6846 168.953 33.4686V35.9466C168.953 36.5906 168.855 37.3186 168.659 38.1306C168.463 38.9146 168.099 39.6846 167.567 40.4406C167.035 41.1686 166.265 41.7846 165.257 42.2886C164.249 42.7646 162.933 43.0026 161.309 43.0026H157.025C155.261 43.0026 153.609 42.9606 152.069 42.8766C150.557 42.7926 149.423 42.7226 148.667 42.6666V50.6886H143.123ZM148.667 38.9706H160.091C161.351 38.9706 162.219 38.6626 162.695 38.0466C163.171 37.4306 163.409 36.6886 163.409 35.8206V33.1746C163.409 32.2786 163.171 31.5226 162.695 30.9066C162.219 30.2906 161.365 29.9826 160.133 29.9826H148.667V38.9706ZM174.818 50.6886V25.9926H200.942V30.0246H180.362V35.8206H196.07V39.9786H180.362V46.6566H201.11L202.79 50.2266C202.79 50.3386 202.412 50.4506 201.656 50.5626C200.9 50.6466 199.598 50.6886 197.75 50.6886H174.818ZM233.812 51.1086C232.692 51.1086 231.586 50.9406 230.494 50.6046C229.43 50.2406 228.212 49.3726 226.84 48.0006L223.816 44.9766C222.584 43.7166 221.226 42.7926 219.742 42.2046C218.286 41.6166 216.452 41.3226 214.24 41.3226H212.938V50.6886H207.394V29.3526L206.974 25.9506H225.58C227.372 25.9506 228.772 26.1886 229.78 26.6646C230.816 27.1406 231.572 27.7706 232.048 28.5546C232.552 29.3106 232.874 30.1226 233.014 30.9906C233.154 31.8586 233.224 32.6846 233.224 33.4686V34.2666C233.224 34.8826 233.14 35.5686 232.972 36.3246C232.804 37.0806 232.482 37.8226 232.006 38.5506C231.53 39.2786 230.844 39.8946 229.948 40.3986C229.08 40.9026 227.932 41.1966 226.504 41.2806C226.868 41.4766 227.33 41.7846 227.89 42.2046C228.45 42.5966 229.024 43.0306 229.612 43.5066C230.228 43.9826 230.788 44.4166 231.292 44.8086C231.796 45.2006 232.188 45.4806 232.468 45.6486C233.476 46.2366 234.372 46.6426 235.156 46.8666C235.94 47.0906 236.584 47.2166 237.088 47.2446C237.592 47.2726 237.886 47.2866 237.97 47.2866L237.13 50.6886C236.878 50.7726 236.458 50.8566 235.87 50.9406C235.282 51.0526 234.596 51.1086 233.812 51.1086ZM219.238 37.5006C220.302 37.5006 221.254 37.4866 222.094 37.4586C222.934 37.4026 223.69 37.3466 224.362 37.2906C225.594 37.1506 226.448 36.8146 226.924 36.2826C227.428 35.7226 227.68 35.0086 227.68 34.1406V33.1746C227.68 32.2786 227.442 31.5226 226.966 30.9066C226.49 30.2906 225.636 29.9826 224.404 29.9826H212.938V37.2906C214.17 37.3746 215.304 37.4306 216.34 37.4586C217.376 37.4866 218.342 37.5006 219.238 37.5006ZM241.755 50.6886V25.9926H247.299V36.2406H263.763V25.9926H269.307V50.6886H263.763V40.2726H247.299V50.6886H241.755ZM283.31 50.6886C281.35 50.6886 279.81 50.4086 278.69 49.8486C277.57 49.2886 276.772 48.4486 276.296 47.3286C275.848 46.2086 275.624 44.8226 275.624 43.1706V33.4686C275.624 31.8446 275.848 30.4866 276.296 29.3946C276.744 28.2746 277.528 27.4346 278.648 26.8746C279.768 26.2866 281.322 25.9926 283.31 25.9926H295.574C297.534 25.9926 299.06 26.2866 300.152 26.8746C301.272 27.4346 302.056 28.2746 302.504 29.3946C302.98 30.4866 303.218 31.8446 303.218 33.4686V43.1706C303.218 45.6346 302.672 47.5106 301.58 48.7986C300.488 50.0586 298.486 50.6886 295.574 50.6886H283.31ZM284.528 46.6566H294.398C295.434 46.6566 296.232 46.3906 296.792 45.8586C297.38 45.3266 297.674 44.5986 297.674 43.6746V32.9646C297.674 32.1526 297.38 31.4666 296.792 30.9066C296.204 30.3186 295.406 30.0246 294.398 30.0246H284.528C283.52 30.0246 282.708 30.2906 282.092 30.8226C281.476 31.3546 281.168 32.0686 281.168 32.9646V43.6746C281.168 44.6266 281.462 45.3686 282.05 45.9006C282.666 46.4046 283.492 46.6566 284.528 46.6566ZM317.955 50.6886L317.913 29.9826H306.993V25.9506H334.461V29.9826H323.499V50.6886H317.955Z" fill="black"/>
<path d="M77.6402 67.6774V58.8424H84.1652C85.1052 58.8424 85.7902 59.0324 86.2202 59.4124C86.6502 59.7824 86.8652 60.2324 86.8652 60.7624V61.2124C86.8652 61.6224 86.7752 61.9624 86.5952 62.2324C86.4252 62.4924 86.2402 62.6774 86.0402 62.7874C86.4802 62.9274 86.8302 63.1724 87.0902 63.5224C87.3502 63.8624 87.4802 64.3124 87.4802 64.8724V65.1424C87.4802 65.4424 87.4452 65.7424 87.3752 66.0424C87.3052 66.3424 87.1702 66.6174 86.9702 66.8674C86.7802 67.1074 86.5052 67.3024 86.1452 67.4524C85.7952 67.6024 85.3352 67.6774 84.7652 67.6774H77.6402ZM79.6202 62.3824H83.8502C84.2002 62.3924 84.4602 62.3074 84.6302 62.1274C84.8002 61.9374 84.8852 61.7024 84.8852 61.4224V61.2724C84.8852 61.0424 84.8052 60.8224 84.6452 60.6124C84.4852 60.3924 84.1852 60.2824 83.7452 60.2824H79.6202V62.3824ZM79.6202 66.2374H84.3452C84.7252 66.2374 85.0102 66.1424 85.2002 65.9524C85.4002 65.7624 85.5002 65.5024 85.5002 65.1724V64.9024C85.5002 64.5924 85.3852 64.3424 85.1552 64.1524C84.9252 63.9524 84.5452 63.8524 84.0152 63.8524H79.6202V66.2374ZM92.8937 67.6774V64.0174L88.5287 58.8574H90.9287L93.1487 61.6624L93.8387 62.5924H93.9887L94.6787 61.6624L96.8987 58.8574H99.2987L98.7137 59.7574L94.8737 64.0774V67.6774H92.8937ZM104.099 67.6774V60.0574L103.949 58.8574H106.109L111.209 64.1974L111.794 65.0074H111.959V58.8574H113.939V67.6774H112.034L106.814 62.2474L106.229 61.5424H106.079V67.6774H104.099ZM116.491 67.6774V60.0574L116.341 58.8574H125.701V60.2974H118.471V62.4874H124.081V63.9724H118.471V67.6774H116.491ZM130.211 67.6774L130.196 60.2824H126.296V58.8424H136.106V60.2824H132.191V67.6774H130.211ZM139.291 67.6774C138.611 67.6774 138.111 67.6474 137.791 67.5874C137.471 67.5274 137.311 67.4574 137.311 67.3774L137.911 66.0724C138.141 66.1124 138.711 66.1524 139.621 66.1924C140.541 66.2224 141.801 66.2374 143.401 66.2374H143.686C144.116 66.2374 144.421 66.1624 144.601 66.0124C144.781 65.8524 144.871 65.5874 144.871 65.2174V64.9174C144.871 64.5674 144.796 64.3174 144.646 64.1674C144.506 64.0174 144.186 63.9424 143.686 63.9424H140.206C139.196 63.9424 138.461 63.7574 138.001 63.3874C137.541 63.0074 137.311 62.3924 137.311 61.5424V61.3024C137.311 60.8624 137.391 60.4574 137.551 60.0874C137.721 59.7174 138.006 59.4224 138.406 59.2024C138.806 58.9724 139.356 58.8574 140.056 58.8574H144.136C144.816 58.8574 145.366 58.8924 145.786 58.9624C146.206 59.0324 146.416 59.1074 146.416 59.1874L146.116 60.4474C145.856 60.4174 145.266 60.3874 144.346 60.3574C143.426 60.3174 142.191 60.2974 140.641 60.2974L140.476 60.2824C140.016 60.2824 139.706 60.3774 139.546 60.5674C139.386 60.7474 139.301 60.9774 139.291 61.2574V61.5124C139.291 61.8424 139.381 62.0924 139.561 62.2624C139.751 62.4224 140.061 62.5024 140.491 62.5024H143.821C144.461 62.5024 145.006 62.5674 145.456 62.6974C145.906 62.8274 146.251 63.0674 146.491 63.4174C146.731 63.7574 146.851 64.2624 146.851 64.9324V65.1724C146.851 65.9224 146.656 66.5274 146.266 66.9874C145.886 67.4474 145.221 67.6774 144.271 67.6774H139.291ZM151.964 67.6774L151.949 60.2824H148.049V58.8424H157.859V60.2824H153.944V67.6774H151.964ZM161.959 67.6774C161.259 67.6774 160.709 67.5774 160.309 67.3774C159.909 67.1774 159.624 66.8774 159.454 66.4774C159.294 66.0774 159.214 65.5824 159.214 64.9924V61.5274C159.214 60.9474 159.294 60.4624 159.454 60.0724C159.614 59.6724 159.894 59.3724 160.294 59.1724C160.694 58.9624 161.249 58.8574 161.959 58.8574H166.339C167.039 58.8574 167.584 58.9624 167.974 59.1724C168.374 59.3724 168.654 59.6724 168.814 60.0724C168.984 60.4624 169.069 60.9474 169.069 61.5274V64.9924C169.069 65.8724 168.874 66.5424 168.484 67.0024C168.094 67.4524 167.379 67.6774 166.339 67.6774H161.959ZM162.394 66.2374H165.919C166.289 66.2374 166.574 66.1424 166.774 65.9524C166.984 65.7624 167.089 65.5024 167.089 65.1724V61.3474C167.089 61.0574 166.984 60.8124 166.774 60.6124C166.564 60.4024 166.279 60.2974 165.919 60.2974H162.394C162.034 60.2974 161.744 60.3924 161.524 60.5824C161.304 60.7724 161.194 61.0274 161.194 61.3474V65.1724C161.194 65.5124 161.299 65.7774 161.509 65.9674C161.729 66.1474 162.024 66.2374 162.394 66.2374ZM180.902 67.8274C180.502 67.8274 180.107 67.7674 179.717 67.6474C179.337 67.5174 178.902 67.2074 178.412 66.7174L177.332 65.6374C176.892 65.1874 176.407 64.8574 175.877 64.6474C175.357 64.4374 174.702 64.3324 173.912 64.3324H173.447V67.6774H171.467V60.0574L171.317 58.8424H177.962C178.602 58.8424 179.102 58.9274 179.462 59.0974C179.832 59.2674 180.102 59.4924 180.272 59.7724C180.452 60.0424 180.567 60.3324 180.617 60.6424C180.667 60.9524 180.692 61.2474 180.692 61.5274V61.8124C180.692 62.0324 180.662 62.2774 180.602 62.5474C180.542 62.8174 180.427 63.0824 180.257 63.3424C180.087 63.6024 179.842 63.8224 179.522 64.0024C179.212 64.1824 178.802 64.2874 178.292 64.3174C178.422 64.3874 178.587 64.4974 178.787 64.6474C178.987 64.7874 179.192 64.9424 179.402 65.1124C179.622 65.2824 179.822 65.4374 180.002 65.5774C180.182 65.7174 180.322 65.8174 180.422 65.8774C180.782 66.0874 181.102 66.2324 181.382 66.3124C181.662 66.3924 181.892 66.4374 182.072 66.4474C182.252 66.4574 182.357 66.4624 182.387 66.4624L182.087 67.6774C181.997 67.7074 181.847 67.7374 181.637 67.7674C181.427 67.8074 181.182 67.8274 180.902 67.8274ZM175.697 62.9674C176.077 62.9674 176.417 62.9624 176.717 62.9524C177.017 62.9324 177.287 62.9124 177.527 62.8924C177.967 62.8424 178.272 62.7224 178.442 62.5324C178.622 62.3324 178.712 62.0774 178.712 61.7674V61.4224C178.712 61.1024 178.627 60.8324 178.457 60.6124C178.287 60.3924 177.982 60.2824 177.542 60.2824H173.447V62.8924C173.887 62.9224 174.292 62.9424 174.662 62.9524C175.032 62.9624 175.377 62.9674 175.697 62.9674ZM182.539 67.6774L186.934 58.8574H189.889L194.269 67.6774H191.959L191.074 65.7724H185.704L184.729 67.6774H182.539ZM186.244 64.3024H190.519L188.464 60.2074H188.314L186.244 64.3024ZM197.774 67.6774C197.064 67.6774 196.509 67.5774 196.109 67.3774C195.709 67.1774 195.429 66.8774 195.269 66.4774C195.109 66.0774 195.029 65.5824 195.029 64.9924V61.6474C195.029 60.6874 195.244 59.9824 195.674 59.5324C196.104 59.0724 196.804 58.8424 197.774 58.8424H202.289C202.979 58.8424 203.504 58.8824 203.864 58.9624C204.234 59.0324 204.419 59.1074 204.419 59.1874L204.119 60.4324C203.949 60.4024 203.444 60.3724 202.604 60.3424C201.774 60.3024 200.564 60.2824 198.974 60.2824H198.209C197.409 60.2824 197.009 60.6374 197.009 61.3474V65.1724C197.009 65.5124 197.094 65.7774 197.264 65.9674C197.444 66.1474 197.759 66.2374 198.209 66.2374H198.824C199.784 66.2374 200.594 66.2324 201.254 66.2224C201.914 66.2024 202.459 66.1874 202.889 66.1774V64.1374L201.989 64.1524L200.024 64.3024V62.8324H204.854V67.0474L205.004 67.3624C205.004 67.4424 204.794 67.5174 204.374 67.5874C203.954 67.6474 203.244 67.6774 202.244 67.6774H197.774ZM207.103 67.6774V58.8574H216.433V60.2974H209.083V62.3674H214.693V63.8524H209.083V66.2374H216.493L217.093 67.5124C217.093 67.5524 216.958 67.5924 216.688 67.6324C216.418 67.6624 215.953 67.6774 215.293 67.6774H207.103ZM219.652 67.6774C219.282 67.6774 219.012 67.6024 218.842 67.4524C218.672 67.3024 218.587 67.0524 218.587 66.7024C218.587 66.3424 218.667 66.0924 218.827 65.9524C218.997 65.8024 219.272 65.7274 219.652 65.7274C220.032 65.7274 220.307 65.8024 220.477 65.9524C220.647 66.0924 220.732 66.3424 220.732 66.7024C220.732 67.0424 220.647 67.2924 220.477 67.4524C220.307 67.6024 220.032 67.6774 219.652 67.6774ZM223.128 67.6774L223.278 66.4774V58.8574H225.258V66.2374H231.468L232.068 67.5124C232.068 67.5524 231.933 67.5924 231.663 67.6324C231.393 67.6624 230.928 67.6774 230.268 67.6774H223.128ZM233.412 67.6774V58.8574H235.392V67.6774H233.412ZM237.942 67.6774V60.0574L237.792 58.8574H239.952L245.052 64.1974L245.637 65.0074H245.802V58.8574H247.782V67.6774H245.877L240.657 62.2474L240.072 61.5424H239.922V67.6774H237.942ZM259.589 67.8274C259.099 67.8274 258.674 67.7274 258.314 67.5274C257.954 67.3274 257.599 67.0574 257.249 66.7174C256.869 66.3174 256.409 65.8574 255.869 65.3374C255.619 65.0774 255.364 64.8624 255.104 64.6924C254.844 64.5224 254.549 64.3924 254.219 64.3024C253.899 64.2124 253.499 64.1674 253.019 64.1674H252.314V67.6774H250.334V60.0574L250.184 58.8574H252.314V62.6974H253.154C253.354 62.6974 253.519 62.6724 253.649 62.6224C253.779 62.5724 253.899 62.4924 254.009 62.3824C254.289 62.1024 254.609 61.7524 254.969 61.3324C255.329 60.9124 255.679 60.4824 256.019 60.0424C256.369 59.5924 256.669 59.1974 256.919 58.8574H259.349L258.734 59.7574C258.454 60.0474 258.154 60.3624 257.834 60.7024C257.514 61.0424 257.199 61.3774 256.889 61.7074C256.579 62.0274 256.299 62.3124 256.049 62.5624C255.799 62.8024 255.614 62.9774 255.494 63.0874C255.764 63.1774 256.009 63.2924 256.229 63.4324C256.459 63.5724 256.739 63.7774 257.069 64.0474C257.319 64.2474 257.559 64.4524 257.789 64.6624C258.029 64.8724 258.304 65.1224 258.614 65.4124C258.964 65.7324 259.294 65.9674 259.604 66.1174C259.914 66.2674 260.174 66.3624 260.384 66.4024C260.604 66.4424 260.744 66.4624 260.804 66.4624L260.504 67.6774C260.474 67.7074 260.384 67.7374 260.234 67.7674C260.084 67.8074 259.869 67.8274 259.589 67.8274Z" fill="#E46454"/>
</svg>
