<svg width="340" height="66" viewBox="0 0 340 66" fill="none" xmlns="http://www.w3.org/2000/svg">
<path d="M27.508 2.45815C29.0133 1.62626 30.8405 1.62644 32.3457 2.45864L56.1842 15.6388C57.7765 16.5192 58.7649 18.195 58.7649 20.0145V46.0054C58.7649 47.8249 57.7765 49.5008 56.1842 50.3811L32.3457 63.5613C30.8405 64.3935 29.0133 64.3937 27.508 63.5618L3.65677 50.3809C2.06397 49.5007 1.0752 47.8246 1.0752 46.0047V20.0152C1.0752 18.1954 2.06397 16.5192 3.65678 15.639L27.508 2.45815Z" fill="white" stroke="#20221E" stroke-width="1.6" stroke-miterlimit="10"/>
<path d="M29.9071 58.5544L53.1626 45.6551V19.882L29.9071 32.7643V58.5544Z" fill="#F5C32C"/>
<path d="M29.5707 58.7328V32.5776L53.1713 19.5084L53.4987 20.0774V45.842L53.3306 45.9354L29.9069 58.9196L29.5707 58.7328ZM30.2344 32.9767V58.0025L52.835 45.4769V20.434L30.2344 32.9767Z" fill="#20221E"/>
<path d="M29.9073 58.5544V32.7558L6.64294 19.882V45.6551L29.9073 58.5544Z" fill="#C84438"/>
<path d="M29.9072 58.9278L29.5886 58.758L6.31543 45.8417V19.7035L6.66055 19.5251L30.2346 32.5688V58.7325L29.9072 58.9278ZM6.97911 45.4766L29.5709 58.0022V32.9764L6.97911 20.4338V45.4766Z" fill="#20221E"/>
<path d="M6.64294 19.882L29.9073 32.7643L53.1628 19.882L29.9073 7.00818L6.64294 19.882Z" fill="#3AAEDA"/>
<g style="mix-blend-mode:soft-light">
<path d="M27.5089 10.099L10.616 19.4487C10.6584 19.7303 10.6584 20.0163 10.616 20.2979L27.4824 29.639C28.1753 29.1474 29.0143 28.8821 29.8761 28.8821C30.7378 28.8821 31.5768 29.1474 32.2698 29.639L49.1362 20.2979C49.1022 20.0157 49.1022 19.7308 49.1362 19.4487L32.2963 10.099C31.6034 10.5906 30.7644 10.856 29.9026 10.856C29.0409 10.856 28.2019 10.5906 27.5089 10.099Z" fill="white" fill-opacity="0.45"/>
</g>
<g style="mix-blend-mode:soft-light">
<path d="M50.7735 22.8879L33.8893 32.331C33.9846 33.1513 33.8031 33.9793 33.3714 34.6932C32.9397 35.407 32.2806 35.9691 31.4912 36.2967V54.8856C31.7716 55.0014 32.036 55.1497 32.2788 55.3272L49.1452 45.9861C49.0464 45.1664 49.2254 44.338 49.6558 43.6237C50.0862 42.9093 50.7449 42.3471 51.5345 42.0203V23.338C51.262 23.2195 51.0063 23.0682 50.7735 22.8879V22.8879Z" fill="white" fill-opacity="0.45"/>
</g>
<g style="mix-blend-mode:soft-light">
<path d="M9.04099 23.8131C8.7899 23.9737 8.52669 24.1171 8.25342 24.2422V42.3965C9.03626 42.7201 9.68771 43.2686 10.1127 43.9618C10.5378 44.6551 10.7142 45.4568 10.6161 46.2501L27.4826 55.3272C27.7333 55.1662 27.9966 55.0227 28.2701 54.8981V36.7439C27.4824 36.4234 26.825 35.8768 26.3937 35.1836C25.9624 34.4905 25.7796 33.687 25.872 32.8902L9.04099 23.8131Z" fill="white" fill-opacity="0.65"/>
</g>
<path d="M29.9072 33.1289L29.7391 33.0355L6.31543 20.0683V19.6947L29.9072 6.651L30.0665 6.74441L53.4813 19.6862V20.0683L29.9072 33.1289ZM7.30653 19.8815L29.9072 32.3901L52.499 19.8815L29.9072 7.37282L7.30653 19.8815Z" fill="#20221E"/>
<path d="M77.5349 39.5084V26.8084L77.2849 24.8084H80.8849L89.3849 33.7084L90.3599 35.0584H90.6349V24.8084H93.9349V39.5084H90.7599L82.0599 30.4584L81.0849 29.2834H80.8349V39.5084H77.5349ZM98.1892 39.5084V26.8084L97.9392 24.8084H113.539V27.2084H101.489V30.8584H110.839V33.3334H101.489V39.5084H98.1892ZM121.055 39.5084L121.03 27.1834H114.53V24.7834H130.88V27.1834H124.355V39.5084H121.055ZM136.188 39.5084C135.055 39.5084 134.222 39.4584 133.688 39.3584C133.155 39.2584 132.888 39.1418 132.888 39.0084L133.888 36.8334C134.272 36.9001 135.222 36.9668 136.738 37.0334C138.272 37.0834 140.372 37.1084 143.038 37.1084H143.513C144.23 37.1084 144.738 36.9834 145.038 36.7334C145.338 36.4668 145.488 36.0251 145.488 35.4084V34.9084C145.488 34.3251 145.363 33.9084 145.113 33.6584C144.88 33.4084 144.347 33.2834 143.513 33.2834H137.713C136.03 33.2834 134.805 32.9751 134.038 32.3584C133.272 31.7251 132.888 30.7001 132.888 29.2834V28.8834C132.888 28.1501 133.022 27.4751 133.288 26.8584C133.572 26.2418 134.047 25.7501 134.713 25.3834C135.38 25.0001 136.297 24.8084 137.463 24.8084H144.263C145.397 24.8084 146.313 24.8668 147.013 24.9834C147.713 25.1001 148.063 25.2251 148.063 25.3584L147.563 27.4584C147.13 27.4084 146.147 27.3584 144.613 27.3084C143.08 27.2418 141.022 27.2084 138.438 27.2084L138.163 27.1834C137.397 27.1834 136.88 27.3418 136.613 27.6584C136.347 27.9584 136.205 28.3418 136.188 28.8084V29.2334C136.188 29.7834 136.338 30.2001 136.638 30.4834C136.955 30.7501 137.472 30.8834 138.188 30.8834H143.738C144.805 30.8834 145.713 30.9918 146.463 31.2084C147.213 31.4251 147.788 31.8251 148.188 32.4084C148.588 32.9751 148.788 33.8168 148.788 34.9334V35.3334C148.788 36.5834 148.463 37.5918 147.813 38.3584C147.18 39.1251 146.072 39.5084 144.488 39.5084H136.188ZM157.31 39.5084L157.285 27.1834H150.785V24.7834H167.135V27.1834H160.61V39.5084H157.31ZM173.968 39.5084C172.802 39.5084 171.885 39.3418 171.218 39.0084C170.552 38.6751 170.077 38.1751 169.793 37.5084C169.527 36.8418 169.393 36.0168 169.393 35.0334V29.2584C169.393 28.2918 169.527 27.4834 169.793 26.8334C170.06 26.1668 170.527 25.6668 171.193 25.3334C171.86 24.9834 172.785 24.8084 173.968 24.8084H181.268C182.435 24.8084 183.343 24.9834 183.993 25.3334C184.66 25.6668 185.127 26.1668 185.393 26.8334C185.677 27.4834 185.818 28.2918 185.818 29.2584V35.0334C185.818 36.5001 185.493 37.6168 184.843 38.3834C184.193 39.1334 183.002 39.5084 181.268 39.5084H173.968ZM174.693 37.1084H180.568C181.185 37.1084 181.66 36.9501 181.993 36.6334C182.343 36.3168 182.518 35.8834 182.518 35.3334V28.9584C182.518 28.4751 182.343 28.0668 181.993 27.7334C181.643 27.3834 181.168 27.2084 180.568 27.2084H174.693C174.093 27.2084 173.61 27.3668 173.243 27.6834C172.877 28.0001 172.693 28.4251 172.693 28.9584V35.3334C172.693 35.9001 172.868 36.3418 173.218 36.6584C173.585 36.9584 174.077 37.1084 174.693 37.1084ZM205.54 39.7584C204.874 39.7584 204.215 39.6584 203.565 39.4584C202.932 39.2418 202.207 38.7251 201.39 37.9084L199.59 36.1084C198.857 35.3584 198.049 34.8084 197.165 34.4584C196.299 34.1084 195.207 33.9334 193.89 33.9334H193.115V39.5084H189.815V26.8084L189.565 24.7834H200.64C201.707 24.7834 202.54 24.9251 203.14 25.2084C203.757 25.4918 204.207 25.8668 204.49 26.3334C204.79 26.7834 204.982 27.2668 205.065 27.7834C205.149 28.3001 205.19 28.7918 205.19 29.2584V29.7334C205.19 30.1001 205.14 30.5084 205.04 30.9584C204.94 31.4084 204.749 31.8501 204.465 32.2834C204.182 32.7168 203.774 33.0834 203.24 33.3834C202.724 33.6834 202.04 33.8584 201.19 33.9084C201.407 34.0251 201.682 34.2084 202.015 34.4584C202.349 34.6918 202.69 34.9501 203.04 35.2334C203.407 35.5168 203.74 35.7751 204.04 36.0084C204.34 36.2418 204.574 36.4084 204.74 36.5084C205.34 36.8584 205.874 37.1001 206.34 37.2334C206.807 37.3668 207.19 37.4418 207.49 37.4584C207.79 37.4751 207.965 37.4834 208.015 37.4834L207.515 39.5084C207.365 39.5584 207.115 39.6084 206.765 39.6584C206.415 39.7251 206.007 39.7584 205.54 39.7584ZM196.865 31.6584C197.499 31.6584 198.065 31.6501 198.565 31.6334C199.065 31.6001 199.515 31.5668 199.915 31.5334C200.649 31.4501 201.157 31.2501 201.44 30.9334C201.74 30.6001 201.89 30.1751 201.89 29.6584V29.0834C201.89 28.5501 201.749 28.1001 201.465 27.7334C201.182 27.3668 200.674 27.1834 199.94 27.1834H193.115V31.5334C193.849 31.5834 194.524 31.6168 195.14 31.6334C195.757 31.6501 196.332 31.6584 196.865 31.6584ZM208.268 39.5084L215.593 24.8084H220.518L227.818 39.5084H223.968L222.493 36.3334H213.543L211.918 39.5084H208.268ZM214.443 33.8834H221.568L218.143 27.0584H217.893L214.443 33.8834ZM233.661 39.5084C232.477 39.5084 231.552 39.3418 230.886 39.0084C230.219 38.6751 229.752 38.1751 229.486 37.5084C229.219 36.8418 229.086 36.0168 229.086 35.0334V29.4584C229.086 27.8584 229.444 26.6834 230.161 25.9334C230.877 25.1668 232.044 24.7834 233.661 24.7834H241.186C242.336 24.7834 243.211 24.8501 243.811 24.9834C244.427 25.1001 244.736 25.2251 244.736 25.3584L244.236 27.4334C243.952 27.3834 243.111 27.3334 241.711 27.2834C240.327 27.2168 238.311 27.1834 235.661 27.1834H234.386C233.052 27.1834 232.386 27.7751 232.386 28.9584V35.3334C232.386 35.9001 232.527 36.3418 232.811 36.6584C233.111 36.9584 233.636 37.1084 234.386 37.1084H235.411C237.011 37.1084 238.361 37.1001 239.461 37.0834C240.561 37.0501 241.469 37.0251 242.186 37.0084V33.6084L240.686 33.6334L237.411 33.8834V31.4334H245.461V38.4584L245.711 38.9834C245.711 39.1168 245.361 39.2418 244.661 39.3584C243.961 39.4584 242.777 39.5084 241.111 39.5084H233.661ZM249.209 39.5084V24.8084H264.759V27.2084H252.509V30.6584H261.859V33.1334H252.509V37.1084H264.859L265.859 39.2334C265.859 39.3001 265.634 39.3668 265.184 39.4334C264.734 39.4834 263.959 39.5084 262.859 39.5084H249.209ZM270.124 39.5084C269.508 39.5084 269.058 39.3834 268.774 39.1334C268.491 38.8834 268.349 38.4668 268.349 37.8834C268.349 37.2834 268.483 36.8668 268.749 36.6334C269.033 36.3834 269.491 36.2584 270.124 36.2584C270.758 36.2584 271.216 36.3834 271.499 36.6334C271.783 36.8668 271.924 37.2834 271.924 37.8834C271.924 38.4501 271.783 38.8668 271.499 39.1334C271.216 39.3834 270.758 39.5084 270.124 39.5084ZM275.918 39.5084L276.168 37.5084V24.8084H279.468V37.1084H289.818L290.818 39.2334C290.818 39.3001 290.593 39.3668 290.143 39.4334C289.693 39.4834 288.918 39.5084 287.818 39.5084H275.918ZM293.056 39.5084V24.8084H296.356V39.5084H293.056ZM300.606 39.5084V26.8084L300.356 24.8084H303.956L312.456 33.7084L313.431 35.0584H313.706V24.8084H317.006V39.5084H313.831L305.131 30.4584L304.156 29.2834H303.906V39.5084H300.606ZM336.685 39.7584C335.869 39.7584 335.16 39.5918 334.56 39.2584C333.96 38.9251 333.369 38.4751 332.785 37.9084C332.152 37.2418 331.385 36.4751 330.485 35.6084C330.069 35.1751 329.644 34.8168 329.21 34.5334C328.777 34.2501 328.285 34.0334 327.735 33.8834C327.202 33.7334 326.535 33.6584 325.735 33.6584H324.56V39.5084H321.26V26.8084L321.01 24.8084H324.56V31.2084H325.96C326.294 31.2084 326.569 31.1668 326.785 31.0834C327.002 31.0001 327.202 30.8668 327.385 30.6834C327.852 30.2168 328.385 29.6334 328.985 28.9334C329.585 28.2334 330.169 27.5168 330.735 26.7834C331.319 26.0334 331.819 25.3751 332.235 24.8084H336.285L335.26 26.3084C334.794 26.7918 334.294 27.3168 333.76 27.8834C333.227 28.4501 332.702 29.0084 332.185 29.5584C331.669 30.0918 331.202 30.5668 330.785 30.9834C330.369 31.3834 330.06 31.6751 329.86 31.8584C330.31 32.0084 330.719 32.2001 331.085 32.4334C331.469 32.6668 331.935 33.0084 332.485 33.4584C332.902 33.7918 333.302 34.1334 333.685 34.4834C334.085 34.8334 334.544 35.2501 335.06 35.7334C335.644 36.2668 336.194 36.6584 336.71 36.9084C337.227 37.1584 337.66 37.3168 338.01 37.3834C338.377 37.4501 338.61 37.4834 338.71 37.4834L338.21 39.5084C338.16 39.5584 338.01 39.6084 337.76 39.6584C337.51 39.7251 337.152 39.7584 336.685 39.7584Z" fill="black"/>
</svg>
