<?xml version="1.0" standalone="no"?>
<!DOCTYPE svg PUBLIC "-//W3C//DTD SVG 20010904//EN"
 "http://www.w3.org/TR/2001/REC-SVG-20010904/DTD/svg10.dtd">
<svg version="1.0" xmlns="http://www.w3.org/2000/svg"
 width="1040.000000pt" height="1040.000000pt" viewBox="0 0 1040.000000 1040.000000"
 preserveAspectRatio="xMidYMid meet">
<metadata>
Created by potrace 1.14, written by Peter Selinger 2001-2017
</metadata>
<g transform="translate(0.000000,1040.000000) scale(0.100000,-0.100000)"
fill="#000000" stroke="none">
<path d="M5189 10246 c-2 -2 -42 -7 -89 -11 -46 -3 -88 -9 -92 -11 -5 -3 -21
-7 -36 -10 -40 -6 -176 -56 -183 -67 -3 -5 -9 -8 -13 -7 -4 1 -35 -15 -70 -34
-36 -20 -69 -36 -75 -36 -6 0 -11 -4 -11 -10 0 -5 -6 -10 -14 -10 -8 0 -21 -6
-28 -12 -7 -7 -36 -24 -63 -38 -28 -13 -52 -27 -55 -30 -3 -3 -27 -16 -55 -29
-27 -13 -57 -30 -65 -37 -8 -7 -22 -14 -30 -16 -8 -2 -17 -6 -20 -9 -3 -3 -36
-23 -75 -44 -38 -21 -83 -46 -100 -55 -16 -9 -82 -45 -145 -80 -63 -35 -129
-71 -147 -81 -18 -10 -63 -35 -100 -55 -37 -21 -85 -48 -105 -61 -21 -13 -38
-21 -38 -18 0 3 -20 -8 -44 -24 -24 -17 -46 -27 -50 -24 -3 4 -6 1 -6 -5 0 -7
-4 -12 -9 -12 -5 0 -67 -32 -137 -71 -71 -40 -158 -88 -194 -107 -83 -45 -126
-69 -153 -86 -12 -7 -51 -29 -87 -48 -36 -20 -94 -52 -130 -72 -36 -20 -85
-47 -110 -59 -25 -12 -47 -25 -50 -28 -3 -4 -30 -19 -60 -34 -30 -15 -72 -38
-92 -51 -21 -14 -38 -22 -38 -18 0 3 -7 -2 -16 -10 -8 -9 -22 -16 -30 -16 -8
0 -14 -5 -14 -12 0 -6 -3 -9 -6 -5 -3 3 -27 -8 -52 -24 -25 -16 -52 -29 -59
-29 -7 0 -13 -3 -13 -8 0 -4 -35 -25 -77 -47 -43 -22 -80 -42 -83 -45 -3 -3
-21 -14 -40 -23 -19 -10 -65 -35 -101 -55 -37 -20 -115 -64 -175 -97 -60 -33
-118 -65 -129 -71 -11 -7 -40 -22 -65 -35 -25 -12 -61 -32 -80 -44 -19 -12
-71 -41 -115 -65 -44 -24 -83 -48 -87 -54 -4 -6 -8 -7 -8 -2 0 4 -11 1 -24 -7
-13 -9 -48 -29 -78 -45 -29 -16 -80 -44 -113 -62 -119 -65 -200 -114 -203
-122 -2 -4 -8 -8 -14 -8 -22 0 -169 -145 -219 -215 -44 -61 -101 -165 -91
-165 4 0 2 -4 -3 -8 -13 -9 -49 -117 -66 -197 -10 -48 -13 -510 -14 -2233 0
-2284 -1 -2267 43 -2375 7 -16 12 -32 12 -37 0 -11 51 -123 60 -130 3 -3 11
-16 18 -30 34 -70 159 -210 232 -260 19 -13 37 -27 40 -30 6 -8 96 -61 135
-80 17 -8 36 -21 43 -28 8 -7 18 -10 23 -7 5 4 9 2 9 -2 0 -5 12 -14 28 -21
25 -11 63 -31 172 -93 25 -14 72 -41 105 -59 33 -18 80 -44 105 -59 25 -14 48
-24 53 -23 4 1 7 -2 7 -8 0 -5 4 -10 8 -10 13 0 306 -163 310 -172 2 -4 12 -8
22 -8 10 0 21 -4 24 -9 3 -5 23 -18 43 -29 40 -21 89 -47 188 -102 118 -64
130 -72 165 -92 19 -11 58 -32 85 -46 28 -14 52 -28 55 -31 3 -4 25 -16 50
-29 103 -53 165 -87 170 -92 3 -3 28 -17 55 -30 28 -14 52 -27 55 -30 6 -6 86
-50 117 -65 13 -5 23 -13 23 -17 0 -5 9 -8 19 -8 11 0 21 -3 23 -7 2 -5 26
-19 53 -33 28 -14 52 -27 55 -30 6 -6 27 -18 118 -67 37 -20 81 -44 97 -53 17
-9 55 -30 85 -47 30 -17 80 -45 110 -62 30 -17 72 -39 93 -49 20 -9 37 -20 37
-24 0 -5 5 -8 11 -8 6 0 70 -33 142 -74 180 -100 225 -126 272 -150 22 -12 42
-23 45 -26 5 -5 119 -66 157 -84 13 -6 23 -14 23 -18 0 -5 9 -8 20 -8 11 0 20
-4 20 -10 0 -5 7 -10 15 -10 8 0 15 -5 15 -12 0 -6 3 -8 7 -5 3 4 11 3 17 -2
6 -5 43 -26 81 -47 39 -20 84 -46 100 -55 17 -10 44 -25 60 -33 17 -8 62 -33
100 -55 39 -23 81 -46 95 -52 14 -5 38 -16 55 -24 29 -13 68 -27 72 -26 2 0
22 -7 45 -15 64 -22 111 -28 243 -28 101 0 164 5 220 18 38 10 71 20 80 25 6
3 16 6 23 7 17 3 205 95 212 104 3 4 10 9 15 11 28 11 212 114 228 127 9 8 17
12 17 7 0 -4 6 -3 13 3 6 5 33 22 60 36 109 60 139 77 160 90 12 7 54 30 92
51 168 90 198 107 207 120 4 6 8 7 8 3 0 -4 22 6 49 22 26 17 53 30 59 30 6 0
17 6 24 13 7 7 42 28 78 46 92 49 104 55 110 61 3 3 25 15 50 28 25 12 59 30
75 40 69 40 234 131 296 165 159 85 295 163 301 172 4 5 8 6 8 2 0 -8 4 -6 75
39 22 13 46 27 53 29 31 12 39 17 77 40 22 14 60 35 85 48 25 12 47 24 50 27
11 12 60 40 60 35 0 -4 12 2 28 13 15 10 41 25 57 34 38 18 78 41 85 48 3 3
30 18 60 33 30 15 62 32 70 37 23 15 431 240 435 240 2 0 21 11 41 25 20 14
40 22 45 19 5 -3 9 0 9 5 0 6 7 11 15 11 8 0 15 4 15 9 0 5 10 13 22 17 11 3
58 27 102 53 45 25 99 55 121 66 22 11 42 23 43 28 2 4 8 7 13 7 5 0 42 19 82
41 40 23 106 60 147 82 182 97 305 196 387 311 12 17 27 36 32 42 12 14 95
183 97 198 4 25 9 41 15 46 3 3 12 39 21 80 15 68 17 270 15 2275 -1 1210 -6
2214 -10 2230 -5 17 -10 41 -12 55 -2 14 -4 25 -5 25 -1 0 -3 9 -5 20 -2 10
-8 28 -13 40 -5 11 -22 49 -38 84 -16 36 -39 80 -51 98 -12 18 -20 33 -18 33
7 0 -62 81 -120 144 -35 36 -122 106 -134 106 -6 0 -11 4 -11 8 0 5 -26 22
-57 39 -91 47 -178 96 -183 102 -3 3 -10 7 -17 8 -6 1 -33 16 -59 33 -26 16
-54 30 -61 30 -7 0 -13 5 -13 10 0 6 -5 10 -10 10 -6 0 -45 20 -88 44 -42 24
-108 60 -147 81 -38 21 -74 41 -80 45 -5 4 -44 26 -85 48 -93 49 -144 78 -176
98 -13 9 -24 12 -24 8 0 -5 -4 -4 -8 2 -6 9 -37 27 -187 109 -27 15 -114 63
-192 106 -78 44 -146 79 -152 79 -6 0 -11 4 -11 9 0 5 -17 16 -37 25 -21 9
-54 26 -73 37 -19 12 -64 37 -100 57 -57 31 -204 112 -264 145 -11 7 -29 19
-40 27 -10 8 -21 14 -25 14 -3 -1 -24 8 -46 21 -64 37 -146 82 -195 107 -25
13 -48 27 -52 33 -4 5 -8 6 -8 1 0 -5 -7 -2 -16 5 -16 13 -102 62 -229 129
-33 18 -85 48 -116 66 -31 19 -61 34 -67 34 -6 0 -17 6 -24 13 -7 7 -40 26
-73 42 -33 17 -62 33 -65 36 -3 3 -41 25 -85 49 -135 72 -189 103 -217 122
-16 11 -28 16 -28 13 0 -3 -13 3 -29 14 -16 12 -34 21 -40 21 -6 0 -11 5 -11
12 0 6 -3 9 -6 5 -3 -3 -27 8 -52 23 -26 16 -72 41 -102 56 -30 15 -56 31 -58
36 -2 4 -8 8 -14 8 -5 0 -23 9 -39 21 -16 11 -29 17 -29 14 0 -3 -12 2 -28 12
-84 56 -218 123 -306 153 -91 32 -123 38 -215 46 -35 2 -67 7 -71 9 -4 2 -9 3
-11 1z"/>
</g>
</svg>
